<svg width="546" height="212" xmlns="http://www.w3.org/2000/svg">
 <g id="Layer_1">
  <title>Layer 1</title>
  <rect stroke="#008b8b" id="svg_1" height="196" width="413" y="9" x="10" stroke-width="2" fill="#008b8b"/>
  <text transform="matrix(0.924597 0 0 1 0.904839 0)" stroke="#f9f26d" font-weight="bold" xml:space="preserve" text-anchor="start" font-family="Noto Sans JP" font-size="80" id="svg_2" y="180" x="12" stroke-width="2" fill="#f9f26d">Go Fluent</text>
  <path stroke="#f9f26d" id="svg_3" d="m371.71305,84.88429l-39.63704,15.23566l39.14704,5.23417l-36.18326,16.35679l-14.60864,-2.76209l10.3614,15.76615l41.1772,-6.87867l-17.38568,-2.87525l47.20975,-23.49364l-43.15504,-4.25806l41.67317,-15.8758l-23.77117,-2.38367l25.89037,-10.0899l-9.51102,-0.14501l-40.17672,13.84226l18.96965,2.32707l0,0z" stroke-width="2" fill="#ffffff"/>
  <path stroke="#008b8b" id="svg_4" d="m419.58845,36.94579c-1.95976,-2.46796 -4.35738,-4.46604 -6.76237,-5.86377c-2.80624,1.43268 -6.2241,2.30508 -9.95022,2.30508c-3.73344,0 -7.15621,-0.8741 -9.95751,-2.30508c-2.40498,1.39773 -4.80506,3.39581 -6.76963,5.86377c-4.56045,5.72991 -5.06199,11.60733 -1.12304,13.13126c1.76403,0.68649 3.61359,0.17482 5.52439,-1.10865c-0.33518,1.30135 -0.53092,2.71185 -0.53092,4.18719c0,6.55456 3.65276,11.86403 8.1544,11.86403c2.71329,0 4.05644,-1.9333 4.70231,-4.89332c0.64348,2.96002 1.98663,4.89332 4.69008,4.89332c4.50903,0 8.16183,-5.30947 8.16183,-11.86403c0,-1.47534 -0.1958,-2.88584 -0.53827,-4.18719c1.91565,1.28346 3.76278,1.79513 5.5317,1.10865c3.93653,-1.52394 3.42758,-7.40136 -1.13274,-13.13126l0,0zm-16.71741,-5.7947c7.57453,0 13.71787,-4.2827 13.71787,-9.56572s-6.14334,-9.56574 -13.71787,-9.56574c-7.57711,0 -13.7253,4.28355 -13.7253,9.56574s6.14819,9.56572 13.7253,9.56572z" stroke-width="2" fill="#ffffff"/>
 </g>
</svg>